<svg xmlns="http://www.w3.org/2000/svg" width="960" height="240" viewBox="0 0 960 240" role="img"><rect width="960" height="240" fill="#0c1330"/><g font-family="sans-serif" text-anchor="middle"><g fill="#19345a" stroke="#2ee6c8" stroke-width="3"><rect x="25" y="70" width="180" height="100" rx="15"/><rect x="275" y="70" width="180" height="100" rx="15"/><rect x="525" y="70" width="180" height="100" rx="15"/><rect x="775" y="70" width="160" height="100" rx="15"/></g><g fill="white" font-size="20"><text x="115" y="112">GESTURE</text><text x="365" y="112">SYNTH / QUEUE</text><text x="615" y="112">MIXER</text><text x="855" y="112">PLAYER</text></g><g fill="#bcd0ef" font-size="15"><text x="115" y="142">safe gate</text><text x="365" y="142">original PCM</text><text x="615" y="142">BGM / SE / duck</text><text x="855" y="142">or silence</text></g><g stroke="#ffd35b" stroke-width="5"><path d="M210 120h55m-13-12 13 12-13 12M460 120h55m-13-12 13 12-13 12M710 120h55m-13-12 13 12-13 12"/></g></g></svg>
