<svg xmlns="http://www.w3.org/2000/svg" width="960" height="240" viewBox="0 0 960 240" role="img"><rect width="960" height="240" fill="#0c1330"/><g font-family="sans-serif" text-anchor="middle"><g fill="#19345a" stroke="#2ee6c8" stroke-width="3"><rect x="20" y="70" width="175" height="100" rx="15"/><rect x="260" y="70" width="175" height="100" rx="15"/><rect x="500" y="70" width="175" height="100" rx="15"/><rect x="740" y="70" width="200" height="100" rx="15"/></g><g fill="white" font-size="19"><text x="107" y="112">WORLD TARGET</text><text x="347" y="112">CAMERA STATE</text><text x="587" y="112">IMPACT / FRAME</text><text x="840" y="112">SAFE SCREEN</text></g><g fill="#bcd0ef" font-size="14"><text x="107" y="142">rule coordinates</text><text x="347" y="142">follow / clamp</text><text x="587" y="142">shake / transition</text><text x="840" y="142">UI composition</text></g><g stroke="#ffd35b" stroke-width="5"><path d="M200 120h50m-12-12 12 12-12 12M440 120h50m-12-12 12 12-12 12M680 120h50m-12-12 12 12-12 12"/></g></g></svg>
