<!-- SPDX-License-Identifier: Apache-2.0 -->
<svg xmlns="http://www.w3.org/2000/svg" viewBox="0 0 940 265" role="img" aria-labelledby="title desc" focusable="false"><title id="title">カメラのオフセット</title><desc id="desc">主人公の世界座標からカメラを引いて画面座標を作る</desc><defs><marker id="arrow" markerWidth="9" markerHeight="9" refX="7" refY="4.5" orient="auto"><path d="M0,0 L9,4.5 L0,9 z" fill="#6a58e6"/></marker><linearGradient id="card" x1="0" x2="1" y1="0" y2="1"><stop stop-color="#ffffff"/><stop offset="1" stop-color="#eef1ff"/></linearGradient></defs><rect width="940" height="265" rx="28" fill="#f4f6ff"/><path d="M218 127 C248 127,237.33333333333337 127,267.33333333333337 127" fill="none" stroke="#6a58e6" stroke-width="4" marker-end="url(#arrow)"/><path d="M445.33333333333337 127 C475.33333333333337 127,464.6666666666667 127,494.6666666666667 127" fill="none" stroke="#6a58e6" stroke-width="4" marker-end="url(#arrow)"/><path d="M672.6666666666667 127 C702.6666666666667 127,692 127,722 127" fill="none" stroke="#6a58e6" stroke-width="4" marker-end="url(#arrow)"/><g><rect x="40" y="82" width="178" height="90" rx="18" fill="url(#card)" stroke="#dffaf4" stroke-width="8"/><circle cx="63" cy="105" r="8" fill="#2ee6c8"/><text x="129" y="124" text-anchor="middle" font-family="system-ui,-apple-system,'Hiragino Sans',sans-serif" font-size="17" font-weight="800" fill="#2b3158"><tspan x="129" dy="0">世界座標</tspan><tspan x="129" dy="23">playerX</tspan></text></g><g><rect x="267.33333333333337" y="82" width="178" height="90" rx="18" fill="url(#card)" stroke="#e8e2ff" stroke-width="8"/><circle cx="290.33333333333337" cy="105" r="8" fill="#2ee6c8"/><text x="356.33333333333337" y="124" text-anchor="middle" font-family="system-ui,-apple-system,'Hiragino Sans',sans-serif" font-size="17" font-weight="800" fill="#2b3158"><tspan x="356.33333333333337" dy="0">追従範囲</tspan><tspan x="356.33333333333337" dy="23">画面中央</tspan></text></g><g><rect x="494.6666666666667" y="82" width="178" height="90" rx="18" fill="url(#card)" stroke="#ffe4ef" stroke-width="8"/><circle cx="517.6666666666667" cy="105" r="8" fill="#2ee6c8"/><text x="583.6666666666667" y="124" text-anchor="middle" font-family="system-ui,-apple-system,'Hiragino Sans',sans-serif" font-size="17" font-weight="800" fill="#2b3158"><tspan x="583.6666666666667" dy="0">cameraX</tspan><tspan x="583.6666666666667" dy="23">境界でclamp</tspan></text></g><g><rect x="722" y="82" width="178" height="90" rx="18" fill="url(#card)" stroke="#dffaf4" stroke-width="8"/><circle cx="745" cy="105" r="8" fill="#2ee6c8"/><text x="811" y="124" text-anchor="middle" font-family="system-ui,-apple-system,'Hiragino Sans',sans-serif" font-size="17" font-weight="800" fill="#2b3158"><tspan x="811" dy="0">画面座標</tspan><tspan x="811" dy="23">world - camera</tspan></text></g></svg>
