<!-- SPDX-License-Identifier: Apache-2.0 -->
<svg xmlns="http://www.w3.org/2000/svg" viewBox="0 0 1370 415" role="img" aria-labelledby="title desc" focusable="false"><title id="title">用語のつながり</title><desc id="desc">入力をUpdateでgameへ入れ、Drawが画面へ投影する地図</desc><defs><marker id="arrow" markerWidth="9" markerHeight="9" refX="7" refY="4.5" orient="auto"><path d="M0,0 L9,4.5 L0,9 z" fill="#6a58e6"/></marker><linearGradient id="card" x1="0" x2="1" y1="0" y2="1"><stop stop-color="#ffffff"/><stop offset="1" stop-color="#eef1ff"/></linearGradient></defs><rect width="1370" height="415" rx="28" fill="#f4f6ff"/><path d="M218 127 C275.79999999999995 127,352.8666666666667 127,410.66666666666663 127" fill="none" stroke="#6a58e6" stroke-width="4" marker-end="url(#arrow)"/><path d="M588.6666666666666 127 C646.4666666666666 127,723.5333333333333 127,781.3333333333333 127" fill="none" stroke="#6a58e6" stroke-width="4" marker-end="url(#arrow)"/><path d="M959.3333333333333 127 C1017.1333333333333 127,1094.2 127,1152 127" fill="none" stroke="#6a58e6" stroke-width="4" marker-end="url(#arrow)"/><path d="M1330 127 C1717 127,-347 277,40 277" fill="none" stroke="#6a58e6" stroke-width="4" marker-end="url(#arrow)"/><path d="M959.3333333333333 127 C1123.9333333333332 127,246.06666666666663 277,410.66666666666663 277" fill="none" stroke="#6a58e6" stroke-width="4" marker-end="url(#arrow)"/><g><rect x="40" y="82" width="178" height="90" rx="18" fill="url(#card)" stroke="#dffaf4" stroke-width="8"/><circle cx="63" cy="105" r="8" fill="#2ee6c8"/><text x="129" y="124" text-anchor="middle" font-family="system-ui,-apple-system,'Hiragino Sans',sans-serif" font-size="17" font-weight="800" fill="#2b3158"><tspan x="129" dy="0">入力</tspan><tspan x="129" dy="23">キー・タッチ</tspan></text></g><g><rect x="410.66666666666663" y="82" width="178" height="90" rx="18" fill="url(#card)" stroke="#e8e2ff" stroke-width="8"/><circle cx="433.66666666666663" cy="105" r="8" fill="#2ee6c8"/><text x="499.66666666666663" y="124" text-anchor="middle" font-family="system-ui,-apple-system,'Hiragino Sans',sans-serif" font-size="17" font-weight="800" fill="#2b3158"><tspan x="499.66666666666663" dy="0">Update</tspan><tspan x="499.66666666666663" dy="23">状態を書き換える</tspan></text></g><g><rect x="781.3333333333333" y="82" width="178" height="90" rx="18" fill="url(#card)" stroke="#ffe4ef" stroke-width="8"/><circle cx="804.3333333333333" cy="105" r="8" fill="#2ee6c8"/><text x="870.3333333333333" y="124" text-anchor="middle" font-family="system-ui,-apple-system,'Hiragino Sans',sans-serif" font-size="17" font-weight="800" fill="#2b3158"><tspan x="870.3333333333333" dy="0">game</tspan><tspan x="870.3333333333333" dy="23">position / score</tspan></text></g><g><rect x="1152" y="82" width="178" height="90" rx="18" fill="url(#card)" stroke="#dffaf4" stroke-width="8"/><circle cx="1175" cy="105" r="8" fill="#2ee6c8"/><text x="1241" y="124" text-anchor="middle" font-family="system-ui,-apple-system,'Hiragino Sans',sans-serif" font-size="17" font-weight="800" fill="#2b3158"><tspan x="1241" dy="0">Draw</tspan><tspan x="1241" dy="23">投影するだけ</tspan></text></g><g><rect x="40" y="232" width="178" height="90" rx="18" fill="url(#card)" stroke="#e8e2ff" stroke-width="8"/><circle cx="63" cy="255" r="8" fill="#2ee6c8"/><text x="129" y="274" text-anchor="middle" font-family="system-ui,-apple-system,'Hiragino Sans',sans-serif" font-size="17" font-weight="800" fill="#2b3158"><tspan x="129" dy="0">画面</tspan><tspan x="129" dy="23">同じ state → 同じ絵</tspan></text></g><g><rect x="410.66666666666663" y="232" width="178" height="90" rx="18" fill="url(#card)" stroke="#ffe4ef" stroke-width="8"/><circle cx="433.66666666666663" cy="255" r="8" fill="#2ee6c8"/><text x="499.66666666666663" y="274" text-anchor="middle" font-family="system-ui,-apple-system,'Hiragino Sans',sans-serif" font-size="17" font-weight="800" fill="#2b3158"><tspan x="499.66666666666663" dy="0">JSON</tspan><tspan x="499.66666666666663" dy="23">面を増やす</tspan></text></g></svg>
