<!-- SPDX-License-Identifier: Apache-2.0 -->
<svg xmlns="http://www.w3.org/2000/svg" viewBox="0 0 1155 415" role="img" aria-labelledby="title desc" focusable="false"><title id="title">用語のつながり</title><desc id="desc">Updateから絵やデータへつながる用語の地図</desc><defs><marker id="arrow" markerWidth="9" markerHeight="9" refX="7" refY="4.5" orient="auto"><path d="M0,0 L9,4.5 L0,9 z" fill="#6a58e6"/></marker><linearGradient id="card" x1="0" x2="1" y1="0" y2="1"><stop stop-color="#ffffff"/><stop offset="1" stop-color="#eef1ff"/></linearGradient></defs><rect width="1155" height="415" rx="28" fill="#f4f6ff"/><path d="M218 127 C254.3 127,302.7 127,339 127" fill="none" stroke="#6a58e6" stroke-width="4" marker-end="url(#arrow)"/><path d="M517 127 C553.3 127,601.7 127,638 127" fill="none" stroke="#6a58e6" stroke-width="4" marker-end="url(#arrow)"/><path d="M816 127 C852.3 127,900.7 127,937 127" fill="none" stroke="#6a58e6" stroke-width="4" marker-end="url(#arrow)"/><path d="M517 127 C660.1 127,-103.1 277,40 277" fill="none" stroke="#6a58e6" stroke-width="4" marker-end="url(#arrow)"/><g><rect x="40" y="82" width="178" height="90" rx="18" fill="url(#card)" stroke="#dffaf4" stroke-width="8"/><circle cx="63" cy="105" r="8" fill="#2ee6c8"/><text x="129" y="124" text-anchor="middle" font-family="system-ui,-apple-system,'Hiragino Sans',sans-serif" font-size="17" font-weight="800" fill="#2b3158"><tspan x="129" dy="0">Update</tspan><tspan x="129" dy="23">数字を進める</tspan></text></g><g><rect x="339" y="82" width="178" height="90" rx="18" fill="url(#card)" stroke="#e8e2ff" stroke-width="8"/><circle cx="362" cy="105" r="8" fill="#2ee6c8"/><text x="428" y="124" text-anchor="middle" font-family="system-ui,-apple-system,'Hiragino Sans',sans-serif" font-size="17" font-weight="800" fill="#2b3158"><tspan x="428" dy="0">状態</tspan><tspan x="428" dy="23">position / score</tspan></text></g><g><rect x="638" y="82" width="178" height="90" rx="18" fill="url(#card)" stroke="#ffe4ef" stroke-width="8"/><circle cx="661" cy="105" r="8" fill="#2ee6c8"/><text x="727" y="124" text-anchor="middle" font-family="system-ui,-apple-system,'Hiragino Sans',sans-serif" font-size="17" font-weight="800" fill="#2b3158"><tspan x="727" dy="0">Draw</tspan><tspan x="727" dy="23">絵を描く</tspan></text></g><g><rect x="937" y="82" width="178" height="90" rx="18" fill="url(#card)" stroke="#dffaf4" stroke-width="8"/><circle cx="960" cy="105" r="8" fill="#2ee6c8"/><text x="1026" y="124" text-anchor="middle" font-family="system-ui,-apple-system,'Hiragino Sans',sans-serif" font-size="17" font-weight="800" fill="#2b3158"><tspan x="1026" dy="0">GeoM</tspan><tspan x="1026" dy="23">場所・回転</tspan></text></g><g><rect x="40" y="232" width="178" height="90" rx="18" fill="url(#card)" stroke="#e8e2ff" stroke-width="8"/><circle cx="63" cy="255" r="8" fill="#2ee6c8"/><text x="129" y="274" text-anchor="middle" font-family="system-ui,-apple-system,'Hiragino Sans',sans-serif" font-size="17" font-weight="800" fill="#2b3158"><tspan x="129" dy="0">JSON</tspan><tspan x="129" dy="23">面を増やす</tspan></text></g></svg>
