<svg xmlns="http://www.w3.org/2000/svg" width="960" height="240" viewBox="0 0 960 240" role="img"><rect width="960" height="240" fill="#0c1330"/><g font-family="sans-serif" text-anchor="middle"><g fill="#19345a" stroke="#2ee6c8" stroke-width="3"><rect x="20" y="70" width="170" height="100" rx="15"/><rect x="255" y="70" width="170" height="100" rx="15"/><rect x="490" y="70" width="170" height="100" rx="15"/><rect x="725" y="70" width="215" height="100" rx="15"/></g><g fill="white" font-size="19"><text x="105" y="112">TEXT / FONT</text><text x="340" y="112">LAYOUT</text><text x="575" y="112">WIDGET</text><text x="832" y="112">FOCUS + STATUS</text></g><g fill="#bcd0ef" font-size="14"><text x="105" y="142">JA / EN glyphs</text><text x="340" y="142">measure / wrap</text><text x="575" y="142">panel / gauge</text><text x="832" y="142">keyboard / touch / words</text></g><g stroke="#ffd35b" stroke-width="5"><path d="M195 120h50m-12-12 12 12-12 12M430 120h50m-12-12 12 12-12 12M665 120h50m-12-12 12 12-12 12"/></g></g></svg>
